<?xml version="1.0" standalone="no"?>
<!DOCTYPE svg PUBLIC "-//W3C//DTD SVG 20010904//EN"
 "http://www.w3.org/TR/2001/REC-SVG-20010904/DTD/svg10.dtd">
<svg version="1.0" xmlns="http://www.w3.org/2000/svg"
 width="317.000000pt" height="317.000000pt" viewBox="0 0 317.000000 317.000000"
 preserveAspectRatio="xMidYMid meet">
<metadata>
Created by potrace 1.11, written by Peter Selinger 2001-2013
</metadata>
<g transform="translate(0.000000,317.000000) scale(0.100000,-0.100000)"
fill="#000000" stroke="none">
<path d="M1549 3088 c-9 -7 -114 -159 -234 -338 -120 -179 -287 -426 -370
-550 -84 -124 -196 -290 -249 -370 -127 -187 -172 -277 -206 -410 -58 -221
-42 -465 43 -670 145 -350 449 -597 829 -676 87 -17 291 -24 385 -12 236 31
477 150 647 321 169 169 271 361 311 586 14 74 14 290 1 356 -13 65 -18 82
-39 150 -11 39 -36 99 -53 135 -18 36 -246 385 -506 775 -465 696 -475 710
-509 713 -19 2 -41 -3 -50 -10z m136 -228 c208 -302 827 -1235 847 -1275 26
-51 64 -154 72 -196 3 -13 9 -45 14 -72 16 -79 14 -245 -3 -337 -62 -327 -262
-588 -570 -742 -57 -29 -150 -63 -187 -68 -4 -1 -22 -6 -40 -11 -48 -13 -121
-21 -218 -23 -168 -4 -331 34 -489 114 -350 175 -566 528 -562 918 0 62 3 116
5 120 2 4 7 28 11 52 10 67 63 217 101 285 18 33 69 112 113 175 44 63 118
171 165 240 46 69 111 163 143 210 59 85 121 176 338 495 63 94 123 176 133
183 9 7 30 12 46 10 24 -2 39 -17 81 -78z"/>
<path d="M2135 1358 c-102 -13 -291 -65 -503 -136 l-202 -68 47 -36 c130 -98
330 -200 478 -244 70 -20 112 -26 190 -27 111 0 129 3 189 34 77 40 121 98
151 203 36 122 3 217 -87 256 -54 23 -169 31 -263 18z"/>
<path d="M815 1353 c-25 -7 -74 -41 -97 -68 -47 -55 -55 -161 -23 -309 89
-424 460 -723 896 -724 374 -1 715 233 854 587 l24 61 -43 -34 c-65 -54 -129
-77 -227 -83 -217 -14 -496 91 -759 286 -41 30 -86 66 -100 79 -39 37 -143
110 -202 141 -107 57 -242 84 -323 64z"/>
</g>
</svg>
