 <!--?xml version="1.0" encoding="UTF-8" standalone="no"?-->
<svg xmlns:dc="http://purl.org/dc/elements/1.1/" xmlns:cc="http://creativecommons.org/ns#" xmlns:rdf="http://www.w3.org/1999/02/22-rdf-syntax-ns#" xmlns:svg="http://www.w3.org/2000/svg" xmlns="http://www.w3.org/2000/svg" viewBox="0 0 706.49866 130.94333" height="47" width="245" xml:space="preserve" version="1.1" id="svg-logo"><metadata id="metadata8"><rdf:rdf><cc:work rdf:about=""><dc:format>image/svg+xml</dc:format><dc:type rdf:resource="http://purl.org/dc/dcmitype/StillImage"></dc:type></cc:work></rdf:rdf></metadata><defs id="defs6"><clipPath id="clipPath16" clipPathUnits="userSpaceOnUse"><path id="path18" d="m 0,98.208 529.874,0 L 529.874,0 0,0 0,98.208 Z"></path></clipPath></defs><g transform="matrix(1.3333333,0,0,-1.3333333,0,130.94333)" id="g10"><g id="g12"><g clip-path="url(#clipPath16)" id="g14"><g transform="translate(524.6729,31.5381)" id="g20">
                     <path id="path22" style="fill:#ffffff;fill-opacity:1;fill-rule:evenodd;stroke:none" d="m 0,0 0,1.52 1.018,0 C 1.535,1.52 2.086,1.409 2.086,0.8 2.086,0.043 1.525,0 0.896,0 L 0,0 Z m 0,-0.631 0.861,0 1.295,-2.127 0.832,0 -1.4,2.163 c 0.725,0.089 1.279,0.472 1.279,1.351 0,0.967 -0.58,1.395 -1.734,1.395 l -1.869,0 0,-4.909 0.736,0 0,2.127 z m -2.701,0.34 c 0,2.092 1.582,3.674 3.607,3.674 2.002,0 3.584,-1.582 3.584,-3.674 0,-2.131 -1.582,-3.699 -3.584,-3.699 -2.025,0 -3.607,1.568 -3.607,3.699 m 3.607,-4.264 c 2.321,0 4.295,1.797 4.295,4.264 0,2.442 -1.974,4.238 -4.295,4.238 -2.342,0 -4.32,-1.796 -4.32,-4.238 0,-2.467 1.978,-4.264 4.32,-4.264"></path></g><g transform="translate(49.9561,73.1396)" id="g24"><path id="path26" style="fill:#ed8b00;fill-opacity:1;fill-rule:nonzero;stroke:none" d="m 0,0 c -13.691,0 -24.797,-11.105 -24.797,-24.798 0,-13.692 11.106,-24.792 24.797,-24.792 13.699,0 24.803,11.1 24.803,24.792 C 24.803,-11.105 13.699,0 0,0"></path></g><g transform="translate(83.6162,49.9346)" id="g28"><path id="path30" style="fill:#ed8b00;fill-opacity:1;fill-rule:nonzero;stroke:none" d="m 0,0 c -0.398,0.419 -0.934,0.643 -1.502,0.656 -1.186,0 -2.189,-0.92 -2.244,-2.052 -0.055,-1.129 0.838,-2.159 2.008,-2.297 0.074,-0.004 0.16,-0.014 0.236,-0.014 1.133,0 2.02,0.887 2.09,2.062 C 0.619,-1.02 0.406,-0.434 0,0"></path></g><g transform="translate(49.8232,83.0381)" id="g32"><path id="path34" style="fill:#ed8b00;fill-opacity:1;fill-rule:nonzero;stroke:none" d="m 0,0 c -0.635,0.029 -1.219,-0.18 -1.648,-0.602 -0.418,-0.386 -0.645,-0.918 -0.651,-1.502 0,-1.167 0.914,-2.177 2.043,-2.234 1.127,-0.062 2.166,0.84 2.303,1.998 0,0.085 0.01,0.17 0.01,0.25 C 2.057,-0.973 1.164,-0.068 0,0"></path></g><g transform="translate(79.2158,56.374)" id="g36"><path id="path38" style="fill:#ed8b00;fill-opacity:1;fill-rule:nonzero;stroke:none" d="m 0,0 c 0.227,-1.111 1.361,-1.867 2.525,-1.701 0.08,0.015 0.163,0.029 0.231,0.049 1.09,0.292 1.719,1.379 1.488,2.533 C 4.119,1.482 3.764,1.998 3.246,2.318 2.756,2.613 2.188,2.696 1.633,2.553 0.488,2.25 -0.238,1.102 0,0"></path></g><g transform="translate(78.7275,62.708)" id="g40"><path id="path42" style="fill:#ed8b00;fill-opacity:1;fill-rule:nonzero;stroke:none" d="M 0,0 C 0.086,0.031 0.15,0.066 0.227,0.11 1.197,0.67 1.537,1.885 0.996,2.94 0.703,3.489 0.24,3.891 -0.344,4.059 -0.895,4.225 -1.461,4.156 -1.957,3.875 -2.984,3.279 -3.389,1.982 -2.873,0.977 -2.371,-0.031 -1.074,-0.471 0,0"></path></g><g transform="translate(72.8135,73.7646)" id="g44"><path id="path46" style="fill:#ed8b00;fill-opacity:1;fill-rule:nonzero;stroke:none" d="m 0,0 c -0.568,0.016 -1.104,-0.205 -1.512,-0.61 -0.832,-0.835 -0.888,-2.202 -0.134,-3.031 0.769,-0.845 2.14,-0.929 3.039,-0.193 0.07,0.045 0.134,0.111 0.191,0.167 0.789,0.798 0.789,2.054 0.01,2.933 C 1.164,-0.275 0.6,-0.014 0,0"></path></g><g transform="translate(67.2236,78.3506)" id="g48"><path id="path50" style="fill:#ed8b00;fill-opacity:1;fill-rule:nonzero;stroke:none" d="m 0,0 c -0.518,0.337 -1.135,0.447 -1.713,0.311 -0.566,-0.139 -1.025,-0.485 -1.312,-0.979 -0.588,-1.016 -0.297,-2.353 0.652,-2.965 0.947,-0.613 2.281,-0.35 2.988,0.586 0.041,0.07 0.086,0.141 0.121,0.207 C 1.311,-1.867 0.988,-0.649 0,0"></path></g><g transform="translate(58.7061,81.7871)" id="g52"><path id="path54" style="fill:#ed8b00;fill-opacity:1;fill-rule:nonzero;stroke:none" d="m 0,0 c -0.592,0.196 -1.205,0.15 -1.74,-0.14 -0.504,-0.266 -0.867,-0.713 -1.028,-1.267 -0.302,-1.145 0.323,-2.346 1.395,-2.707 1.074,-0.354 2.299,0.249 2.732,1.338 0.032,0.069 0.057,0.15 0.086,0.224 C 1.736,-1.466 1.107,-0.364 0,0"></path></g><g transform="translate(19.499,48.3418)" id="g56"><path id="path58" style="fill:#ed8b00;fill-opacity:1;fill-rule:nonzero;stroke:none" d="m 0,0 c 0.066,1.13 -0.832,2.153 -1.996,2.288 -0.076,0.013 -0.162,0.013 -0.246,0.013 -1.121,0 -2.022,-0.89 -2.092,-2.058 -0.031,-0.619 0.186,-1.205 0.604,-1.646 0.392,-0.419 0.923,-0.644 1.488,-0.648 1.183,0 2.191,0.924 2.242,2.051"></path></g><g transform="translate(43.4717,80.7412)" id="g60"><path id="path62" style="fill:#ed8b00;fill-opacity:1;fill-rule:nonzero;stroke:none" d="M 0,0 C -0.281,1.088 -1.365,1.727 -2.52,1.492 -3.131,1.355 -3.639,1.006 -3.957,0.486 -4.25,0 -4.334,-0.573 -4.197,-1.131 c 0.312,-1.132 1.455,-1.867 2.564,-1.633 1.104,0.237 1.856,1.364 1.695,2.526 C 0.051,-0.154 0.031,-0.072 0,0"></path></g><g transform="translate(35.3877,77.7266)" id="g64"><path id="path66" style="fill:#ed8b00;fill-opacity:1;fill-rule:nonzero;stroke:none" d="m 0,0 c -0.561,0.962 -1.77,1.3 -2.828,0.766 -0.543,-0.29 -0.947,-0.764 -1.119,-1.341 -0.168,-0.541 -0.1,-1.123 0.181,-1.614 0.6,-1.023 1.897,-1.433 2.899,-0.918 1.002,0.513 1.451,1.807 0.978,2.882 C 0.086,-0.149 0.045,-0.081 0,0"></path></g><g transform="translate(28.1025,73.167)" id="g68"><path id="path70" style="fill:#ed8b00;fill-opacity:1;fill-rule:nonzero;stroke:none" d="m 0,0 c -0.789,0.781 -2.051,0.791 -2.928,0.004 -0.459,-0.423 -0.72,-0.983 -0.74,-1.59 -0.01,-0.572 0.211,-1.108 0.617,-1.51 0.834,-0.836 2.196,-0.89 3.028,-0.123 0.841,0.75 0.937,2.117 0.195,3.037 C 0.117,-0.122 0.066,-0.057 0,0"></path></g><g transform="translate(22.8916,66.5986)" id="g72"><path id="path74" style="fill:#ed8b00;fill-opacity:1;fill-rule:nonzero;stroke:none" d="m 0,0 c -0.061,0.045 -0.125,0.094 -0.195,0.139 -0.975,0.556 -2.205,0.242 -2.85,-0.75 -0.332,-0.518 -0.443,-1.131 -0.303,-1.713 0.137,-0.56 0.481,-1.022 0.979,-1.315 1.019,-0.588 2.349,-0.295 2.963,0.655 C 1.209,-2.039 0.947,-0.697 0,0"></path></g><g transform="translate(17.8311,54.7158)" id="g76"><path id="path78" style="fill:#ed8b00;fill-opacity:1;fill-rule:nonzero;stroke:none" d="M 0,0 C 1.139,-0.307 2.35,0.311 2.691,1.385 3.055,2.459 2.459,3.684 1.371,4.119 1.295,4.159 1.219,4.187 1.139,4.202 0.055,4.496 -1.053,3.879 -1.412,2.76 -1.613,2.166 -1.568,1.549 -1.271,1.019 -1.008,0.52 -0.555,0.156 0,0"></path></g><g transform="translate(49.5674,18.208)" id="g80"><path id="path82" style="fill:#ed8b00;fill-opacity:1;fill-rule:nonzero;stroke:none" d="m 0,0 c -1.129,-0.059 -2.043,-1.059 -2.043,-2.246 0.006,-0.57 0.232,-1.102 0.65,-1.49 0.43,-0.42 1.014,-0.627 1.649,-0.599 1.164,0.067 2.057,0.964 2.057,2.089 0,0.074 -0.01,0.158 -0.01,0.241 C 2.166,-0.837 1.127,0.059 0,0"></path></g><g transform="translate(81.9717,42.1836)" id="g84"><path id="path86" style="fill:#ed8b00;fill-opacity:1;fill-rule:nonzero;stroke:none" d="m 0,0 c -0.068,0.025 -0.15,0.041 -0.23,0.052 -1.165,0.168 -2.299,-0.597 -2.526,-1.703 -0.238,-1.1 0.488,-2.254 1.633,-2.551 C -0.568,-4.351 0,-4.269 0.49,-3.964 1.008,-3.653 1.363,-3.136 1.488,-2.526 1.719,-1.382 1.09,-0.292 0,0"></path></g><g transform="translate(78.9541,34.0889)" id="g88"><path id="path90" style="fill:#ed8b00;fill-opacity:1;fill-rule:nonzero;stroke:none" d="m 0,0 c -0.076,0.043 -0.141,0.084 -0.227,0.115 -1.074,0.463 -2.371,0.027 -2.873,-0.986 -0.515,-1.004 -0.111,-2.303 0.916,-2.891 0.497,-0.292 1.063,-0.349 1.614,-0.191 0.584,0.176 1.047,0.568 1.34,1.124 C 1.311,-1.779 0.971,-0.559 0,0"></path></g><g transform="translate(74.2061,26.9795)" id="g92"><path id="path94" style="fill:#ed8b00;fill-opacity:1;fill-rule:nonzero;stroke:none" d="m 0,0 c -0.898,0.729 -2.27,0.641 -3.039,-0.195 -0.754,-0.836 -0.697,-2.201 0.135,-3.035 0.408,-0.411 0.943,-0.618 1.511,-0.605 0.6,0.011 1.164,0.278 1.594,0.739 0.779,0.871 0.779,2.133 -0.01,2.93 C 0.135,-0.107 0.07,-0.057 0,0"></path></g><g transform="translate(67.8389,21.5977)" id="g96"><path id="path98" style="fill:#ed8b00;fill-opacity:1;fill-rule:nonzero;stroke:none" d="m 0,0 c -0.707,0.946 -2.041,1.2 -2.988,0.585 -0.95,-0.607 -1.241,-1.939 -0.653,-2.968 0.287,-0.488 0.746,-0.837 1.313,-0.962 0.578,-0.142 1.195,-0.041 1.713,0.305 0.988,0.643 1.31,1.865 0.736,2.832 C 0.086,-0.138 0.041,-0.063 0,0"></path></g><g transform="translate(60.0654,17.9014)" id="g100"><path id="path102" style="fill:#ed8b00;fill-opacity:1;fill-rule:nonzero;stroke:none" d="m 0,0 c -0.434,1.094 -1.658,1.687 -2.732,1.327 -1.073,-0.354 -1.698,-1.561 -1.395,-2.706 0.16,-0.547 0.523,-1 1.027,-1.269 0.536,-0.278 1.149,-0.334 1.741,-0.141 1.107,0.375 1.736,1.477 1.445,2.555 C 0.057,-0.154 0.031,-0.08 0,0"></path></g><g transform="translate(41.8389,18.9229)" id="g104"><path id="path106" style="fill:#ed8b00;fill-opacity:1;fill-rule:nonzero;stroke:none" d="m 0,0 c -1.109,0.238 -2.252,-0.492 -2.564,-1.633 -0.137,-0.558 -0.053,-1.128 0.24,-1.615 0.318,-0.518 0.826,-0.865 1.437,-0.999 1.155,-0.233 2.239,0.398 2.52,1.486 0.031,0.077 0.051,0.163 0.062,0.236 C 1.855,-1.357 1.104,-0.227 0,0"></path></g><g transform="translate(34.5205,22.2842)" id="g108"><path id="path110" style="fill:#ed8b00;fill-opacity:1;fill-rule:nonzero;stroke:none" d="m 0,0 c -1.002,0.514 -2.299,0.11 -2.898,-0.91 -0.282,-0.5 -0.35,-1.074 -0.182,-1.629 0.172,-0.57 0.576,-1.049 1.119,-1.33 1.059,-0.524 2.268,-0.203 2.828,0.769 0.045,0.073 0.086,0.154 0.112,0.223 C 1.451,-1.804 1.002,-0.506 0,0"></path></g><g transform="translate(25.0518,26.8389)" id="g112"><path id="path114" style="fill:#ed8b00;fill-opacity:1;fill-rule:nonzero;stroke:none" d="m 0,0 c -0.406,-0.402 -0.627,-0.945 -0.617,-1.516 0.019,-0.601 0.281,-1.173 0.74,-1.588 0.877,-0.783 2.139,-0.783 2.928,0.01 0.066,0.051 0.117,0.112 0.172,0.184 0.742,0.914 0.646,2.272 -0.196,3.025 C 2.195,0.885 0.834,0.828 0,0"></path></g><g transform="translate(20.5225,33.9404)" id="g116"><path id="path118" style="fill:#ed8b00;fill-opacity:1;fill-rule:nonzero;stroke:none" d="m 0,0 c -0.498,-0.279 -0.842,-0.75 -0.979,-1.312 -0.14,-0.584 -0.029,-1.188 0.303,-1.716 0.645,-0.982 1.875,-1.308 2.85,-0.743 0.07,0.046 0.135,0.085 0.195,0.142 0.947,0.701 1.209,2.034 0.594,2.986 C 2.35,0.304 1.02,0.598 0,0"></path></g><g transform="translate(20.5225,40.8018)" id="g120"><path id="path122" style="fill:#ed8b00;fill-opacity:1;fill-rule:nonzero;stroke:none" d="M 0,0 C -0.342,1.075 -1.553,1.705 -2.691,1.393 -3.246,1.24 -3.699,0.875 -3.963,0.373 -4.26,-0.156 -4.305,-0.781 -4.104,-1.369 c 0.36,-1.117 1.467,-1.74 2.551,-1.448 0.08,0.03 0.157,0.053 0.233,0.085 C -0.232,-2.299 0.363,-1.072 0,0"></path></g><g transform="translate(99.1104,49.2646)" id="g124"><path id="path126" style="fill:#ed8b00;fill-opacity:1;fill-rule:nonzero;stroke:none" d="m 0,0 c -0.201,0.282 -0.498,0.461 -0.83,0.516 -0.727,0.111 -1.383,-0.358 -1.477,-1.033 -0.113,-0.739 0.311,-1.381 1,-1.547 0.088,-0.024 0.184,-0.03 0.284,-0.03 0.634,0 1.183,0.448 1.279,1.035 C 0.309,-0.672 0.227,-0.303 0,0"></path></g><g transform="translate(49.8896,98.1865)" id="g128"><path id="path130" style="fill:#ed8b00;fill-opacity:1;fill-rule:nonzero;stroke:none" d="m 0,0 c -0.373,0.066 -0.742,-0.027 -1.049,-0.24 -0.277,-0.213 -0.457,-0.504 -0.51,-0.84 -0.115,-0.723 0.36,-1.377 1.028,-1.477 0.738,-0.109 1.386,0.314 1.547,0.996 0.025,0.092 0.037,0.182 0.037,0.278 C 1.053,-0.633 0.6,-0.083 0,0"></path></g><g transform="translate(96.8779,59.71)" id="g132"><path id="path134" style="fill:#ed8b00;fill-opacity:1;fill-rule:nonzero;stroke:none" d="m 0,0 c 0.09,0 0.186,0.014 0.287,0.039 0.609,0.17 1.027,0.74 0.957,1.34 C 1.209,1.758 1.023,2.093 0.729,2.33 0.469,2.551 0.131,2.648 -0.203,2.607 -0.943,2.527 -1.447,1.91 -1.361,1.23 -1.275,0.49 -0.707,-0.028 0,0"></path></g><g transform="translate(92.1436,73.958)" id="g136"><path id="path138" style="fill:#ed8b00;fill-opacity:1;fill-rule:nonzero;stroke:none" d="m 0,0 c -0.322,0.141 -0.67,0.146 -0.977,0.033 -0.691,-0.275 -1.019,-1.006 -0.767,-1.644 0.277,-0.688 0.963,-1.037 1.639,-0.838 0.091,0.029 0.177,0.068 0.257,0.115 0.559,0.317 0.805,0.986 0.584,1.547 C 0.602,-0.429 0.334,-0.15 0,0"></path></g><g transform="translate(84.1982,84.3096)" id="g140"><path id="path142" style="fill:#ed8b00;fill-opacity:1;fill-rule:nonzero;stroke:none" d="m 0,0 c -0.34,0.043 -0.674,-0.042 -0.951,-0.234 -0.59,-0.432 -0.715,-1.23 -0.307,-1.776 0.444,-0.596 1.209,-0.752 1.805,-0.385 0.076,0.049 0.142,0.11 0.217,0.182 0.459,0.455 0.513,1.162 0.166,1.645 C 0.689,-0.264 0.369,-0.059 0,0"></path></g><g transform="translate(73.8369,91.7451)" id="g144"><path id="path146" style="fill:#ed8b00;fill-opacity:1;fill-rule:nonzero;stroke:none" d="m 0,0 c -0.338,-0.031 -0.645,-0.203 -0.852,-0.462 -0.48,-0.575 -0.377,-1.381 0.151,-1.798 0.586,-0.461 1.351,-0.424 1.84,0.094 0.054,0.059 0.115,0.144 0.166,0.225 0.324,0.555 0.203,1.257 -0.268,1.633 C 0.732,-0.07 0.369,0.041 0,0"></path></g><g transform="translate(62.7666,96.3994)" id="g148"><path id="path150" style="fill:#ed8b00;fill-opacity:1;fill-rule:nonzero;stroke:none" d="M 0,0 C -0.355,0.152 -0.729,0.164 -1.078,0.029 -1.4,-0.096 -1.662,-0.33 -1.793,-0.641 -2.1,-1.309 -1.814,-2.063 -1.189,-2.34 c 0.681,-0.291 1.421,-0.058 1.755,0.558 0.039,0.083 0.08,0.177 0.11,0.264 C 0.844,-0.893 0.551,-0.247 0,0"></path></g><g transform="translate(2.5771,48.1357)" id="g152"><path id="path154" style="fill:#ed8b00;fill-opacity:1;fill-rule:nonzero;stroke:none" d="m 0,0 c 0.107,0.729 -0.312,1.379 -0.992,1.537 -0.1,0.024 -0.186,0.037 -0.293,0.037 -0.635,0 -1.188,-0.445 -1.274,-1.045 -0.06,-0.379 0.032,-0.754 0.246,-1.056 0.208,-0.28 0.504,-0.461 0.827,-0.508 C -0.756,-1.158 -0.1,-0.684 0,0"></path></g><g transform="translate(37.1201,96.8906)" id="g156"><path id="path158" style="fill:#ed8b00;fill-opacity:1;fill-rule:nonzero;stroke:none" d="m 0,0 c -0.377,-0.032 -0.715,-0.222 -0.951,-0.507 -0.223,-0.277 -0.322,-0.607 -0.281,-0.947 0.08,-0.727 0.695,-1.226 1.384,-1.154 0.731,0.082 1.256,0.658 1.229,1.363 -0.01,0.086 -0.02,0.183 -0.043,0.277 C 1.166,-0.349 0.59,0.07 0,0"></path></g><g transform="translate(26.5869,91.0615)" id="g160"><path id="path162" style="fill:#ed8b00;fill-opacity:1;fill-rule:nonzero;stroke:none" d="m 0,0 c -0.318,0.557 -0.99,0.807 -1.543,0.584 -0.363,-0.129 -0.65,-0.393 -0.797,-0.74 -0.137,-0.319 -0.146,-0.656 -0.023,-0.971 0.271,-0.689 1.006,-1.023 1.636,-0.771 0.686,0.279 1.039,0.963 0.836,1.64 C 0.078,-0.168 0.043,-0.084 0,0"></path></g><g transform="translate(16.1162,83.7373)" id="g164"><path id="path166" style="fill:#ed8b00;fill-opacity:1;fill-rule:nonzero;stroke:none" d="m 0,0 c -0.463,0.451 -1.174,0.518 -1.648,0.154 -0.307,-0.224 -0.512,-0.558 -0.563,-0.922 -0.051,-0.347 0.035,-0.679 0.231,-0.947 0.433,-0.599 1.224,-0.723 1.773,-0.31 0.596,0.448 0.752,1.202 0.389,1.8 C 0.121,-0.151 0.066,-0.07 0,0"></path></g><g transform="translate(8.3994,73.9111)" id="g168"><path id="path170" style="fill:#ed8b00;fill-opacity:1;fill-rule:nonzero;stroke:none" d="m 0,0 c -0.559,0.317 -1.25,0.205 -1.633,-0.266 -0.236,-0.296 -0.342,-0.671 -0.303,-1.039 0.032,-0.341 0.198,-0.652 0.459,-0.857 0.571,-0.466 1.375,-0.381 1.799,0.152 0.461,0.58 0.42,1.35 -0.09,1.838 C 0.15,-0.115 0.09,-0.051 0,0"></path></g><g transform="translate(3.585,62.0967)" id="g172"><path id="path174" style="fill:#ed8b00;fill-opacity:1;fill-rule:nonzero;stroke:none" d="m 0,0 c -0.084,0.041 -0.176,0.084 -0.275,0.107 -0.612,0.168 -1.26,-0.121 -1.502,-0.668 -0.157,-0.347 -0.172,-0.734 -0.037,-1.084 0.117,-0.324 0.369,-0.574 0.675,-0.71 0.666,-0.307 1.426,-0.018 1.696,0.61 C 0.857,-1.074 0.615,-0.336 0,0"></path></g><g transform="translate(97.165,37.1582)" id="g176"><path id="path178" style="fill:#ed8b00;fill-opacity:1;fill-rule:nonzero;stroke:none" d="m 0,0 c -0.102,0.028 -0.197,0.044 -0.287,0.044 -0.707,0.017 -1.275,-0.501 -1.361,-1.238 -0.086,-0.67 0.418,-1.299 1.158,-1.381 0.334,-0.029 0.672,0.066 0.931,0.277 0.295,0.24 0.481,0.572 0.516,0.958 C 1.027,-0.737 0.609,-0.168 0,0"></path></g><g transform="translate(92.2959,25.2803)" id="g180"><path id="path182" style="fill:#ed8b00;fill-opacity:1;fill-rule:nonzero;stroke:none" d="m 0,0 c -0.08,0.051 -0.166,0.087 -0.258,0.115 -0.676,0.201 -1.361,-0.146 -1.638,-0.838 -0.252,-0.629 0.076,-1.366 0.767,-1.631 0.307,-0.128 0.654,-0.115 0.977,0.026 0.334,0.152 0.601,0.429 0.736,0.783 C 0.805,-0.98 0.559,-0.32 0,0"></path></g><g transform="translate(84.7451,14.9893)" id="g184"><path id="path186" style="fill:#ed8b00;fill-opacity:1;fill-rule:nonzero;stroke:none" d="m 0,0 c -0.596,0.375 -1.361,0.207 -1.805,-0.374 -0.408,-0.544 -0.283,-1.343 0.307,-1.786 0.277,-0.195 0.611,-0.279 0.951,-0.228 0.369,0.054 0.69,0.255 0.93,0.563 C 0.73,-1.342 0.676,-0.629 0.217,-0.18 0.143,-0.109 0.076,-0.043 0,0"></path></g><g transform="translate(74.9756,7.335)" id="g188"><path id="path190" style="fill:#ed8b00;fill-opacity:1;fill-rule:nonzero;stroke:none" d="m 0,0 c -0.488,0.51 -1.254,0.543 -1.84,0.096 -0.527,-0.436 -0.631,-1.231 -0.15,-1.811 0.207,-0.254 0.513,-0.424 0.851,-0.461 0.369,-0.043 0.733,0.069 1.037,0.305 0.471,0.377 0.592,1.084 0.268,1.631 C 0.115,-0.155 0.055,-0.068 0,0"></path></g><g transform="translate(63.333,2.2842)" id="g192"><path id="path194" style="fill:#ed8b00;fill-opacity:1;fill-rule:nonzero;stroke:none" d="m 0,0 c -0.334,0.617 -1.074,0.854 -1.756,0.556 -0.625,-0.273 -0.91,-1.029 -0.603,-1.696 0.13,-0.311 0.392,-0.547 0.714,-0.671 0.35,-0.137 0.723,-0.125 1.079,0.038 0.55,0.238 0.843,0.895 0.675,1.505 C 0.08,-0.168 0.039,-0.081 0,0"></path></g><g transform="translate(37.2725,2.6299)" id="g196"><path id="path198" style="fill:#ed8b00;fill-opacity:1;fill-rule:nonzero;stroke:none" d="m 0,0 c -0.689,0.074 -1.305,-0.432 -1.385,-1.171 -0.041,-0.329 0.059,-0.665 0.281,-0.936 0.237,-0.284 0.575,-0.467 0.952,-0.516 0.589,-0.065 1.166,0.353 1.338,0.971 0.023,0.096 0.033,0.193 0.043,0.286 C 1.256,-0.66 0.73,-0.092 0,0"></path></g><g transform="translate(25.8604,7.7354)" id="g200"><path id="path202" style="fill:#ed8b00;fill-opacity:1;fill-rule:nonzero;stroke:none" d="M 0,0 C -0.631,0.256 -1.365,-0.071 -1.637,-0.761 -1.76,-1.076 -1.75,-1.42 -1.613,-1.74 c 0.146,-0.345 0.433,-0.602 0.797,-0.742 0.552,-0.219 1.224,0.031 1.543,0.587 0.043,0.085 0.078,0.17 0.109,0.263 C 1.039,-0.959 0.686,-0.277 0,0"></path></g><g transform="translate(15.9092,15.1943)" id="g204"><path id="path206" style="fill:#ed8b00;fill-opacity:1;fill-rule:nonzero;stroke:none" d="m 0,0 c -0.549,0.41 -1.34,0.283 -1.773,-0.301 -0.196,-0.278 -0.282,-0.613 -0.231,-0.953 0.051,-0.373 0.256,-0.695 0.563,-0.932 0.474,-0.353 1.185,-0.289 1.648,0.168 0.066,0.069 0.121,0.139 0.182,0.221 C 0.752,-1.197 0.596,-0.443 0,0"></path></g><g transform="translate(6.9229,25.1533)" id="g208"><path id="path210" style="fill:#ed8b00;fill-opacity:1;fill-rule:nonzero;stroke:none" d="m 0,0 c -0.262,-0.209 -0.428,-0.512 -0.459,-0.854 -0.039,-0.371 0.066,-0.736 0.303,-1.037 0.383,-0.468 1.074,-0.589 1.633,-0.257 0.089,0.041 0.15,0.1 0.232,0.169 0.51,0.476 0.551,1.251 0.09,1.831 C 1.375,0.393 0.57,0.475 0,0"></path></g><g transform="translate(2.4463,37.1621)" id="g212"><path id="path214" style="fill:#ed8b00;fill-opacity:1;fill-rule:nonzero;stroke:none" d="m 0,0 c -0.307,-0.126 -0.559,-0.378 -0.676,-0.712 -0.135,-0.344 -0.119,-0.728 0.037,-1.072 0.243,-0.561 0.891,-0.852 1.502,-0.674 0.1,0.019 0.192,0.057 0.276,0.103 0.615,0.334 0.857,1.073 0.556,1.754 C 1.426,0.024 0.666,0.306 0,0"></path></g><g transform="translate(88.4756,53.8076)" id="g216"><path id="path218" style="fill:#ed8b00;fill-opacity:1;fill-rule:nonzero;stroke:none" d="m 0,0 c -0.021,-0.975 0.787,-1.811 1.797,-1.867 l 0.094,-0.011 c 0.996,0 1.777,0.81 1.798,1.853 C 3.703,0.489 3.518,0.971 3.17,1.328 2.842,1.662 2.398,1.842 1.924,1.842 l -0.074,0 C 0.852,1.803 0.01,0.971 0,0"></path></g><g transform="translate(44.3291,87.4893)" id="g220"><path id="path222" style="fill:#ed8b00;fill-opacity:1;fill-rule:nonzero;stroke:none" d="M 0,0 0,0 0,-0.012 0,0 Z m -0.035,-0.193 0.035,0 c 0.973,0 1.779,0.789 1.84,1.798 C 1.865,2.09 1.689,2.553 1.361,2.904 1.014,3.279 0.523,3.496 -0.051,3.5 -0.57,3.5 -1.049,3.307 -1.391,2.945 -1.725,2.604 -1.895,2.146 -1.875,1.661 c 0.041,-1.007 0.861,-1.839 1.84,-1.854"></path></g><g transform="translate(87.9814,62.3496)" id="g224"><path id="path226" style="fill:#ed8b00;fill-opacity:1;fill-rule:nonzero;stroke:none" d="m 0,0 c 0.131,0 0.258,0.013 0.396,0.04 0.475,0.1 0.86,0.385 1.131,0.797 0.262,0.43 0.348,0.957 0.221,1.472 C 1.547,3.134 0.832,3.718 0.016,3.718 -0.166,3.718 -0.334,3.692 -0.51,3.638 -1.479,3.342 -2.057,2.327 -1.836,1.38 -1.639,0.581 -0.863,0 0,0"></path></g><g transform="translate(82.2646,71.6377)" id="g228"><path id="path230" style="fill:#ed8b00;fill-opacity:1;fill-rule:nonzero;stroke:none" d="M 0,0 C 0.303,0 0.605,0.08 0.889,0.215 1.307,0.428 1.623,0.806 1.758,1.27 1.908,1.766 1.855,2.286 1.604,2.757 1.26,3.357 0.66,3.732 0.006,3.732 -0.316,3.732 -0.645,3.635 -0.928,3.455 -1.777,2.91 -2.086,1.775 -1.613,0.928 -1.307,0.357 -0.68,0 0,0"></path></g><g transform="translate(74.7588,79.4365)" id="g232"><path id="path234" style="fill:#ed8b00;fill-opacity:1;fill-rule:nonzero;stroke:none" d="M 0,0 C 0.48,0 0.943,0.186 1.307,0.508 1.658,0.832 1.859,1.275 1.875,1.762 1.891,2.275 1.693,2.768 1.322,3.146 0.959,3.521 0.48,3.73 -0.006,3.73 -0.502,3.73 -0.961,3.521 -1.307,3.156 -1.98,2.408 -1.971,1.236 -1.307,0.537 -0.961,0.201 -0.502,0 0,0"></path></g><g transform="translate(66.4424,88.0039)" id="g236"><path id="path238" style="fill:#ed8b00;fill-opacity:1;fill-rule:nonzero;stroke:none" d="m 0,0 c -0.303,0.197 -0.645,0.284 -0.979,0.284 -0.666,0 -1.244,-0.352 -1.562,-0.939 -0.459,-0.895 -0.164,-2.032 0.67,-2.524 0.267,-0.167 0.586,-0.252 0.908,-0.252 0.641,0 1.256,0.334 1.617,0.876 0.254,0.409 0.332,0.884 0.239,1.355 C 0.766,-0.696 0.463,-0.278 0,0"></path></g><g transform="translate(54.4873,87.335)" id="g240"><path id="path242" style="fill:#ed8b00;fill-opacity:1;fill-rule:nonzero;stroke:none" d="m 0,0 c 0.172,-0.053 0.336,-0.082 0.504,-0.082 0.795,0 1.527,0.543 1.787,1.325 C 2.443,1.703 2.396,2.191 2.176,2.621 1.93,3.072 1.527,3.406 1.006,3.559 0.824,3.611 0.648,3.639 0.463,3.639 -0.389,3.639 -1.086,3.084 -1.281,2.271 -1.502,1.285 -0.924,0.269 0,0"></path></g><g transform="translate(10.915,43.0713)" id="g244"><path id="path246" style="fill:#ed8b00;fill-opacity:1;fill-rule:nonzero;stroke:none" d="m 0,0 c 0.012,0.979 -0.787,1.816 -1.809,1.871 l -0.091,0 c -0.993,0 -1.786,-0.808 -1.795,-1.846 -0.02,-0.521 0.166,-0.998 0.515,-1.347 0.332,-0.335 0.766,-0.518 1.244,-0.518 l 0.082,0 c 1,0.041 1.831,0.867 1.854,1.84"></path></g><g transform="translate(34.0615,84.8779)" id="g248"><path id="path250" style="fill:#ed8b00;fill-opacity:1;fill-rule:nonzero;stroke:none" d="M 0,0 C 0.141,0 0.277,0.014 0.408,0.049 1.361,0.278 1.961,1.275 1.76,2.273 1.576,3.101 0.838,3.688 -0.045,3.688 -0.197,3.688 -0.357,3.667 -0.52,3.627 -1.033,3.504 -1.451,3.184 -1.699,2.748 -1.936,2.332 -1.996,1.832 -1.84,1.367 -1.604,0.571 -0.816,0 0,0"></path></g><g transform="translate(24.7607,82.8887)" id="g252"><path id="path254" style="fill:#ed8b00;fill-opacity:1;fill-rule:nonzero;stroke:none" d="m 0,0 c -0.336,0 -0.66,-0.089 -0.945,-0.251 -0.481,-0.252 -0.803,-0.672 -0.924,-1.158 -0.11,-0.473 -0.041,-0.962 0.223,-1.369 0.361,-0.557 0.986,-0.903 1.656,-0.903 0.306,0 0.601,0.08 0.867,0.219 0.848,0.464 1.182,1.59 0.711,2.496 C 1.281,-0.376 0.672,0 0,0"></path></g><g transform="translate(16.9346,71.7334)" id="g256"><path id="path258" style="fill:#ed8b00;fill-opacity:1;fill-rule:nonzero;stroke:none" d="M 0,0 C 0.492,0 0.961,0.176 1.289,0.5 1.994,1.183 2.01,2.344 1.33,3.104 0.992,3.473 0.518,3.678 0.014,3.678 -0.475,3.678 -0.949,3.482 -1.316,3.123 -1.699,2.758 -1.906,2.271 -1.891,1.766 -1.887,1.283 -1.684,0.832 -1.32,0.5 -0.959,0.176 -0.494,0 0,0"></path></g><g transform="translate(10.8604,62.6768)" id="g260"><path id="path262" style="fill:#ed8b00;fill-opacity:1;fill-rule:nonzero;stroke:none" d="m 0,0 c 0.256,-0.135 0.578,-0.217 0.896,-0.217 0.676,0 1.305,0.347 1.624,0.891 C 3.023,1.508 2.742,2.637 1.895,3.191 1.613,3.375 1.281,3.477 0.941,3.477 0.287,3.477 -0.312,3.131 -0.666,2.543 -0.939,2.083 -1.023,1.57 -0.883,1.078 -0.748,0.619 -0.434,0.24 0,0"></path></g><g transform="translate(8.6006,51.9873)" id="g264"><path id="path266" style="fill:#ed8b00;fill-opacity:1;fill-rule:nonzero;stroke:none" d="m 0,0 c 0.137,-0.029 0.273,-0.047 0.424,-0.047 0.836,0 1.631,0.56 1.846,1.338 C 2.547,2.228 1.988,3.248 1.029,3.566 0.844,3.626 0.668,3.654 0.48,3.654 -0.338,3.654 -1.047,3.105 -1.289,2.286 -1.439,1.768 -1.381,1.251 -1.123,0.818 -0.885,0.398 -0.473,0.107 0,0"></path></g><g transform="translate(55.0205,9.6074)" id="g268"><path id="path270" style="fill:#ed8b00;fill-opacity:1;fill-rule:nonzero;stroke:none" d="m 0,0 c -0.172,0 -0.322,-0.028 -0.479,-0.069 -0.937,-0.27 -1.517,-1.285 -1.3,-2.264 0.191,-0.822 0.886,-1.379 1.734,-1.379 0.186,0 0.367,0.027 0.543,0.082 0.52,0.143 0.934,0.479 1.174,0.933 0.223,0.426 0.267,0.911 0.111,1.372 C 1.537,-0.548 0.807,0 0,0"></path></g><g transform="translate(90.7588,45.0127)" id="g272"><path id="path274" style="fill:#ed8b00;fill-opacity:1;fill-rule:nonzero;stroke:none" d="m 0,0 -0.096,0 c -1.013,-0.058 -1.826,-0.892 -1.8,-1.869 0.015,-0.975 0.851,-1.799 1.855,-1.838 l 0.076,-0.002 c 0.473,0 0.916,0.184 1.244,0.511 0.35,0.354 0.535,0.839 0.526,1.358 C 1.779,-0.804 0.992,0 0,0"></path></g><g transform="translate(88.0713,34.5244)" id="g276"><path id="path278" style="fill:#ed8b00;fill-opacity:1;fill-rule:nonzero;stroke:none" d="m 0,0 c -0.141,0.029 -0.271,0.043 -0.408,0.043 -0.877,0 -1.627,-0.57 -1.824,-1.381 -0.239,-0.945 0.347,-1.963 1.308,-2.26 0.184,-0.055 0.369,-0.086 0.531,-0.086 0.832,0 1.528,0.563 1.745,1.411 0.127,0.515 0.044,1.046 -0.237,1.478 C 0.861,-0.387 0.465,-0.109 0,0"></path></g><g transform="translate(83.3135,24.8701)" id="g280"><path id="path282" style="fill:#ed8b00;fill-opacity:1;fill-rule:nonzero;stroke:none" d="m 0,0 c -0.277,0.145 -0.586,0.213 -0.883,0.213 -0.679,0 -1.306,-0.359 -1.613,-0.924 -0.477,-0.848 -0.176,-1.977 0.67,-2.519 0.295,-0.182 0.615,-0.278 0.953,-0.278 0.641,0 1.25,0.363 1.582,0.96 0.254,0.462 0.32,0.991 0.172,1.482 C 0.744,-0.594 0.434,-0.219 0,0"></path></g><g transform="translate(74.79,17.7256)" id="g284"><path id="path286" style="fill:#ed8b00;fill-opacity:1;fill-rule:nonzero;stroke:none" d="m 0,0 c -0.514,0 -0.973,-0.197 -1.307,-0.543 -0.673,-0.7 -0.67,-1.873 0.016,-2.613 0.334,-0.364 0.793,-0.571 1.279,-0.571 0.506,0 0.981,0.211 1.338,0.585 0.371,0.392 0.559,0.88 0.543,1.398 C 1.85,-1.26 1.652,-0.814 1.291,-0.496 0.943,-0.174 0.479,0 0,0"></path></g><g transform="translate(65.3232,12.4053)" id="g288"><path id="path290" style="fill:#ed8b00;fill-opacity:1;fill-rule:nonzero;stroke:none" d="m 0,0 c -0.322,0 -0.641,-0.094 -0.918,-0.263 -0.83,-0.501 -1.129,-1.63 -0.654,-2.518 0.316,-0.593 0.892,-0.942 1.549,-0.942 0.345,0 0.689,0.1 0.986,0.285 0.465,0.278 0.766,0.704 0.887,1.209 0.105,0.474 0.019,0.952 -0.243,1.354 C 1.256,-0.334 0.635,0 0,0"></path></g><g transform="translate(44.4346,5.7715)" id="g292"><path id="path294" style="fill:#ed8b00;fill-opacity:1;fill-rule:nonzero;stroke:none" d="M 0,0 0,0 0,-0.004 0,0 Z m 0.006,3.511 0,0 C -0.963,3.497 -1.799,2.662 -1.834,1.659 -1.85,1.168 -1.687,0.714 -1.35,0.378 -1.002,0.014 -0.533,-0.185 0,-0.185 l 0.041,0 C 0.57,-0.167 1.055,0.04 1.412,0.416 1.738,0.769 1.906,1.228 1.875,1.711 1.82,2.718 1.023,3.511 0.006,3.511"></path></g><g transform="translate(34.4795,12.3066)" id="g296"><path id="path298" style="fill:#ed8b00;fill-opacity:1;fill-rule:nonzero;stroke:none" d="m 0,0 c -0.131,0.034 -0.271,0.05 -0.418,0.05 -0.805,0 -1.594,-0.574 -1.834,-1.358 -0.152,-0.474 -0.102,-0.963 0.135,-1.38 0.248,-0.447 0.666,-0.764 1.18,-0.891 0.166,-0.043 0.306,-0.059 0.488,-0.059 0.879,0 1.607,0.59 1.791,1.41 C 1.549,-1.234 0.953,-0.229 0,0"></path></g><g transform="translate(25.458,17.3291)" id="g300"><path id="path302" style="fill:#ed8b00;fill-opacity:1;fill-rule:nonzero;stroke:none" d="m 0,0 c -0.254,0.141 -0.555,0.225 -0.867,0.225 -0.666,0 -1.295,-0.348 -1.649,-0.895 -0.265,-0.42 -0.359,-0.907 -0.23,-1.365 0.119,-0.5 0.441,-0.908 0.91,-1.172 0.293,-0.164 0.621,-0.249 0.949,-0.249 0.674,0 1.289,0.362 1.598,0.96 C 1.172,-1.59 0.855,-0.474 0,0"></path></g><g transform="translate(17.2061,25.165)" id="g304"><path id="path306" style="fill:#ed8b00;fill-opacity:1;fill-rule:nonzero;stroke:none" d="m 0,0 c -0.504,0 -0.982,-0.184 -1.346,-0.514 -0.363,-0.336 -0.552,-0.781 -0.564,-1.265 -0.004,-0.508 0.201,-0.992 0.588,-1.358 0.369,-0.349 0.843,-0.543 1.332,-0.543 0.51,0 0.972,0.209 1.31,0.575 0.686,0.766 0.655,1.925 -0.041,2.607 C 0.949,-0.184 0.482,0 0,0"></path></g><g transform="translate(11.8232,34.6201)" id="g308"><path id="path310" style="fill:#ed8b00;fill-opacity:1;fill-rule:nonzero;stroke:none" d="m 0,0 c -0.324,0 -0.631,-0.08 -0.902,-0.223 -0.44,-0.232 -0.746,-0.611 -0.879,-1.084 -0.135,-0.489 -0.051,-1.004 0.228,-1.464 0.348,-0.573 0.951,-0.917 1.602,-0.917 0.34,0 0.672,0.096 0.969,0.286 0.847,0.558 1.119,1.689 0.609,2.527 C 1.293,-0.334 0.666,0 0,0"></path></g><g transform="translate(185.0479,29.8623)" id="g312"><path id="path314" style="fill:#ffffff;fill-opacity:1;fill-rule:nonzero;stroke:none" d="m 0,0 c 0.207,-0.84 -0.256,-1.568 -1.418,-1.568 l -6.496,0 c -1.004,0 -1.672,0.418 -1.834,1.201 l -6.654,30.984 -15.053,-31.138 c -0.246,-0.52 -0.774,-1.047 -1.723,-1.047 -0.791,0 -1.256,0.209 -1.619,1.047 L -48.633,29.987 -54.66,-0.419 c -0.162,-0.731 -0.947,-1.149 -1.684,-1.149 l -3.306,0 c -1.043,0 -1.559,0.527 -1.311,1.568 l 10.697,39.782 c 0.11,0.319 0.422,0.577 0.948,0.577 l 5.402,0 c 0.469,0 0.832,-0.258 0.99,-0.577 l 12,-28.719 14.25,28.195 c 0.221,0.369 0.641,0.524 1.008,0.577 l 4.77,0.468 c 0.89,0.119 1.41,-0.415 1.515,-0.777 L 0,0 Z"></path></g><g transform="translate(232.7061,44.4854)" id="g316"><path id="path318" style="fill:#ffffff;fill-opacity:1;fill-rule:nonzero;stroke:none" d="m 0,0 c 0,10.176 -7.965,18.135 -18.08,18.135 -7.971,0 -16.565,-4.608 -16.565,-14.678 0,-8.541 7.916,-17.607 19.649,-17.607 C -6.705,-14.15 0,-7.809 0,0 m 8.654,3.83 c 0,-12.629 -10.906,-21.498 -26.572,-21.498 -5.662,0 -12.949,0.688 -18.924,5.924 -4.301,3.783 -6.029,7.557 -6.029,13.006 0,10.062 9.275,20.285 26.988,20.285 7.24,0 12.213,-1.258 16.926,-4.299 C 5.756,14.265 8.654,9.121 8.654,3.83"></path></g><g transform="translate(286.0869,64.9795)" id="g320"><path id="path322" style="fill:#ffffff;fill-opacity:1;fill-rule:nonzero;stroke:none" d="m 0,0 c 0.791,0 1.008,-0.523 1.008,-0.886 l -1.215,-35.125 c 0,-0.257 -0.258,-0.675 -0.893,-0.675 l -1.728,0 c -0.473,0 -1.049,0.209 -1.512,0.675 l -28.414,28.317 1.154,-27.944 c 0,-0.466 -0.474,-1.048 -1.154,-1.048 l -3.67,0 c -0.783,0 -1.254,0.471 -1.254,1.1 l 0.735,34.645 c 0,0.418 0.312,0.941 0.886,0.941 l 6.661,0 c 0.63,0 0.992,-0.15 1.353,-0.57 L -3.877,-25.418 -4.34,-0.998 C -4.34,-0.57 -4.139,0 -3.348,0 L 0,0 Z"></path></g><g transform="translate(335.3018,64.9795)" id="g324"><path id="path326" style="fill:#ffffff;fill-opacity:1;fill-rule:nonzero;stroke:none" d="M 0,0 C 0.582,0 0.582,-0.631 0.582,-0.631 L 0,-4.922 c -0.045,-0.426 -0.361,-0.58 -0.68,-0.58 l -14.724,1.102 0,-31.136 c 0,-0.679 -0.524,-1.15 -1.209,-1.15 l -5.6,0 c -0.742,0 -1.209,0.471 -1.209,1.15 l 0,31.136 -14.26,-1.149 c -0.531,-0.056 -1.004,0.201 -1.043,0.727 l -0.421,4.191 c 0,0.481 0.365,0.631 0.578,0.631 L 0,0 Z"></path></g><g transform="translate(387.6904,46.2236)" id="g328"><path id="path330" style="fill:#ffffff;fill-opacity:1;fill-rule:nonzero;stroke:none" d="m 0,0 c 1.105,0 1.627,-1.053 1.627,-1.574 l 0,-14.834 c 0,-1.83 -1.26,-1.83 -2.668,-2.361 -3.521,-0.836 -9.801,-1.573 -13.891,-1.573 -5.398,0 -12.847,0.52 -18.398,2.883 -8.695,3.716 -13.891,10.531 -13.891,18.242 0,7.488 3.983,14.198 11.008,18.238 5.551,3.296 12.219,4.92 20.44,4.92 6.714,0 9.961,-0.675 13.308,-1.461 0.996,-0.209 2.408,-1.21 2.363,-2.732 l -0.216,-4.602 c -0.045,-1.212 -2.305,-2.464 -3.141,-0.267 -1.516,3.877 -7.334,5.607 -15.353,5.607 -11.004,0 -19.024,-6.818 -19.024,-16.189 0,-13.161 13.676,-21.179 23.584,-21.179 0.727,0 4.871,0.153 7.856,1.157 l 0,12.256 -5.702,0.266 c -0.478,0 -0.953,0.317 -1.105,0.733 l -0.477,1.204 C -13.941,-0.584 -13.57,0 -12.84,0 L 0,0 Z"></path></g><g transform="translate(408.1807,62.3057)" id="g332"><path id="path334" style="fill:#ffffff;fill-opacity:1;fill-rule:nonzero;stroke:none" d="m 0,0 0,-14.824 c 1.678,0 3.93,0.097 6.133,0.726 1.558,0.473 6.342,2.523 6.342,7.502 C 12.475,-3.616 9.068,-0.045 0,0 m 28.145,-34.221 c 0.369,-0.371 0.314,-0.993 -0.161,-1.101 l -1.83,-0.311 c -0.523,-0.105 -1.154,0.102 -1.627,0.311 -4.033,1.838 -17.974,15.724 -19.972,17.764 -2.192,-0.206 -3.614,-0.262 -4.5,-0.262 l 0,-15.092 c 0,-0.572 -0.481,-1.1 -1.16,-1.1 l -5.661,0 c -0.781,0 -1.255,0.471 -1.255,1.1 l 0,34.7 c 0,0.415 0.369,0.886 0.841,0.886 l 5.774,0 c 6.289,0 12.885,-0.106 16.763,-1.417 3.508,-1.148 5.45,-3.458 5.45,-6.388 0,-3.151 -3.715,-7.546 -8.231,-9.859 1.889,-2.873 10.59,-14.201 15.569,-19.231"></path></g><g transform="translate(459.4678,61.3115)" id="g336"><path id="path338" style="fill:#ffffff;fill-opacity:1;fill-rule:nonzero;stroke:none" d="m 0,0 -0.791,0 -4.869,-15.307 10.58,0 L 0,0 Z m 12.258,-33.018 c -0.836,0 -1.199,0.471 -1.41,0.999 l -4.672,13.152 -13.358,-1.098 -3.828,-12.054 c -0.207,-0.636 -0.678,-0.999 -1.146,-0.999 l -3.778,0 c -0.472,0 -0.892,0.363 -0.691,0.999 L -3.459,2.992 c 0.213,0.571 0.52,0.676 1.1,0.676 l 7.55,0 c 0.831,0 1.049,-0.259 1.196,-0.676 l 13.211,-35.011 c 0.215,-0.471 -0.262,-0.999 -0.836,-0.999 l -6.504,0 z"></path></g><g transform="translate(513.8799,39.0869)" id="g340"><path id="path342" style="fill:#ffffff;fill-opacity:1;fill-rule:nonzero;stroke:none" d="m 0,0 c 0,-6.917 -6.926,-11.632 -17.453,-11.632 -2.684,0 -6.24,0.53 -8.49,0.993 -0.786,0.161 -1.588,0.946 -1.528,1.938 l 0.268,4.305 c 0.111,1.359 1.517,0.464 1.785,0.045 1.674,-2.566 5.867,-4.237 9.426,-4.237 5.144,0 9.066,2.457 9.066,5.712 0,3.61 -4.033,5.499 -8.269,7.603 l -0.168,0 c -6.03,2.933 -11.008,6.019 -11.008,12.466 0,4.666 3.25,9.592 13.422,9.592 l 0.842,0 c 2.515,0 5.443,-0.049 8.019,-0.892 0.938,-0.315 0.988,-0.779 0.881,-1.57 l -0.512,-3.979 c -0.117,-0.791 -0.736,-1.266 -1.373,-0.681 -1.25,1.142 -4.918,4.138 -8.431,4.138 -5.61,0 -7.6,-2.574 -7.6,-4.406 0,-2.52 3.613,-4.194 7.861,-6.188 0.514,-0.152 1.049,-0.467 1.569,-0.73 C -6.508,10.066 0,7.025 0,0"></path></g></g></g></g>
                       </svg>